<svg xmlns="http://www.w3.org/2000/svg" xmlns:ns1="http://sozi.baierouge.fr" xmlns:svg="http://www.w3.org/2000/svg" xmlns:xlink="http://www.w3.org/1999/xlink" id="svg2" version="1.1" viewBox="0 0 744.09 1052.4"><defs id="defs4"><filter id="filter4165"><feGaussianBlur id="feGaussianBlur4167" stdDeviation="15.601"/></filter><filter id="filter4183" width="1.679" height="1.146" x="-.339" y="-.073"><feGaussianBlur id="feGaussianBlur4185" stdDeviation="10.5"/></filter><filter id="filter4191" width="1.367" height="1.178" x="-.183" y="-.089"><feGaussianBlur id="feGaussianBlur4193" stdDeviation="14.215"/></filter><filter id="filter4195" width="1.437" height="1.165" x="-.218" y="-.083"><feGaussianBlur id="feGaussianBlur4197" stdDeviation="11.818"/></filter><linearGradient id="linearGradient4205" x1="428.13" x2="403.67" y1="293.97" y2="362.42" gradientUnits="userSpaceOnUse"><stop id="stop4201" offset="0" stop-color="#404040"/><stop id="stop4203" offset="1" stop-color="#404040" stop-opacity="0"/></linearGradient><linearGradient id="linearGradient4213" x1="422.54" x2="414.19" y1="290.2" y2="365.77" gradientUnits="userSpaceOnUse"><stop id="stop4209" offset="0" stop-color="#525252"/><stop id="stop4211" offset="1" stop-color="#525252" stop-opacity="0"/></linearGradient></defs><g id="layer1"><path id="path4159" fill="#000" stroke="#000" stroke-width=".901" d="m514.29 165.25c159.15 25.501 110.07 200.32 86.092 264.15-25.282 67.285-47.899 196.23-23.14 251.93 24.759 55.707 49.781 165.77 24.584 176.49-44.068 18.748-54.066-38.619-95.26-48.917s-12.873 69.514-64.365 72.089c-51.492 2.5746-38.619-77.238-82.387-97.835s-92.685 77.238-139.03 54.066c-46.343-23.171-12.873-90.111-25.746-115.86-12.873-25.746-56.641 38.619-92.685-12.873-25.056-35.794 69.106-101.2 97.835-144.18 28.729-42.975 80.79-136.71 99.812-226.78 18.328-86.787 54.72-197.85 214.29-172.28z" filter="url(#filter4165)" opacity=".75"/><path id="path4153" fill="#fff" stroke="#bfbfbf" stroke-width="2" d="m506.29 151.25c153.43 36.93 110.07 200.32 86.092 264.15-25.282 67.285-47.899 196.23-23.14 251.93 24.759 55.707 49.781 165.77 24.584 176.49-44.068 18.748-54.066-38.619-95.26-48.917s-12.873 69.514-64.365 72.089c-51.492 2.5746-38.619-77.238-82.387-97.835s-92.685 77.238-139.03 54.066c-46.343-23.171-12.873-90.111-25.746-115.86-12.873-25.746-56.641 38.619-92.685-12.873-25.056-35.794 69.106-101.2 97.835-144.18 28.729-42.975 80.79-136.71 99.812-226.78 18.328-86.787 57.587-210 214.29-172.28z"/><path id="path4155" fill="#000" stroke="url(#linearGradient4213)" stroke-linecap="round" stroke-linejoin="round" stroke-width="4.781" d="m431.43 328.08a14.286 32.857 0 1 1 -28.571 0 14.286 32.857 0 1 1 28.571 0z" transform="matrix(1.3086 .64264 -.65481 1.2843 108.51 -353.14)"/><path id="path4157" fill="#000" stroke="url(#linearGradient4205)" stroke-linecap="round" stroke-linejoin="round" stroke-width="5.644" d="m431.43 328.08a14.286 32.857 0 1 1 -28.571 0 14.286 32.857 0 1 1 28.571 0z" transform="matrix(1.055 .13775 -.10265 1.4157 135.16 -157.58)"/><path id="path4169" fill="#bfbfbf" d="m483.14 684.93c0-45.714 48.571-194.29 48.571-194.29s-5.7143 97.143-5.7143 140 31.429 205.71 31.429 205.71-34.286-25.714-40-40c-27.386-7.2853-35.948-24.105-34.286-111.43z" filter="url(#filter4183)" opacity=".25"/><path id="path4187" fill="#bfbfbf" d="m308.86 679.22c45.71-125.71 57.14-214.29 57.14-214.29s26.075 85.437 11.429 125.71c-22.857 62.857-17.143 165.71-17.143 165.71s-40 8.5714-97.143 51.429c-26.028-4.4587-4.5192-44.105 45.714-128.57z" filter="url(#filter4195)" opacity=".25"/><path id="path4189" fill="#bfbfbf" d="m189.46 620.63c85.482-99.712 116.79-286.17 116.79-286.17s-7.1633 100.33-14.573 142.54c-14.94 85.107-48.942 171.58-59.969 174.89 0 0-44.589 46.809-97.143 65.194-26.028-4.4587-21.344-45.635 54.891-96.452z" filter="url(#filter4191)" opacity=".25"/></g><metadata/></svg>