<svg width="200" height="20" viewBox="0 0 200 20" fill="none" xmlns="http://www.w3.org/2000/svg">
<path d="M86.5186 17.1134H88.8312L83.1281 1.52563H80.793L75.0898 17.1134H77.3801L78.9518 12.6314H84.9244L86.5186 17.1134ZM81.983 3.6673C81.983 3.6673 82.3198 5.08036 82.5892 5.87521L84.3406 10.8209H79.5356L81.3094 5.87521C81.5788 5.08036 81.9381 3.6673 81.9381 3.6673H81.983Z" fill="white"/>
<path d="M91.6139 17.1134H93.8367V7.00124C93.8367 6.11808 93.6796 4.72709 93.6796 4.72709H93.7245C93.7245 4.72709 94.4654 6.14015 95.0492 7.00124L102.122 17.1134H104.3V1.52563H102.077V11.6599C102.077 12.521 102.234 13.912 102.234 13.912H102.189C102.189 13.912 101.448 12.4989 100.865 11.6599L93.8143 1.52563H91.6139V17.1134Z" fill="white"/>
<path d="M112.402 17.1134H114.625V10.5118L119.924 1.52563H117.409L114.513 6.64797C114.019 7.53113 113.547 8.61301 113.547 8.61301H113.502C113.502 8.61301 113.031 7.50905 112.537 6.64797L109.595 1.52563H107.08L112.402 10.5118V17.1134Z" fill="white"/>
<path d="M130.16 1.52563L127.061 12.9626C126.837 13.8237 126.725 14.6185 126.725 14.6185H126.68C126.68 14.6185 126.59 13.8016 126.388 12.9626L123.581 1.52563H121.291L125.333 17.1134H127.915L130.654 7.00124C130.923 6.00768 131.125 4.79333 131.125 4.79333H131.17C131.17 4.79333 131.372 6.00768 131.642 7.00124L134.381 17.1134H136.963L141.117 1.52563H138.827L135.908 12.9626C135.683 13.8016 135.616 14.6185 135.616 14.6185H135.571C135.571 14.6185 135.459 13.8237 135.234 12.9626L132.136 1.52563H130.16Z" fill="white"/>
<path d="M144.446 17.1134H146.669V10.2689H154.886V17.1134H157.109V1.52563H154.886V8.37014H146.669V1.52563H144.446V17.1134Z" fill="white"/>
<path d="M161.866 17.1134H171.454V15.2146H164.089V10.2027H169.77V8.3039H164.089V3.42443H171.072V1.52563H161.866V17.1134Z" fill="white"/>
<path d="M175.186 17.1134H177.409V10.9092H180.8L184.145 17.1134H186.66L183.292 11.0638C183 10.556 182.821 10.3573 182.821 10.3573V10.3131C184.55 9.76112 185.672 8.08311 185.672 6.096C185.672 4.04265 184.617 2.47503 183 1.8789C182.394 1.65811 181.698 1.52563 180.036 1.52563H175.186V17.1134ZM177.409 9.01043V3.42443H179.969C181.204 3.42443 181.72 3.55691 182.147 3.7777C182.955 4.21928 183.404 5.0362 183.404 6.18431C183.404 7.92856 182.327 9.01043 180.598 9.01043H177.409Z" fill="white"/>
<path d="M190.02 17.1134H199.607V15.2146H192.243V10.2027H197.923V8.3039H192.243V3.42443H199.226V1.52563H190.02V17.1134Z" fill="white"/>
<path d="M0 17.3198H9.02621V16.4367H0.96549V9.96751H7.22995V9.08435H0.96549V2.74766H8.5996V1.8645H0V17.3198Z" fill="white"/>
<path d="M13.2764 17.3198H14.2419V10.9169H18.4406C21.1799 10.9169 23.2232 9.17267 23.2232 6.36863C23.2232 3.56459 21.1799 1.8645 18.4406 1.8645H13.2764V17.3198ZM14.2419 10.0337V2.74766H18.3957C20.6859 2.74766 22.2128 4.05033 22.2128 6.36863C22.2128 8.68693 20.6859 10.0337 18.3957 10.0337H14.2419Z" fill="white"/>
<path d="M36.0124 17.3198H37.0453L31.1625 1.8645H30.1297L24.2469 17.3198H25.2797L27.3005 11.9767H33.9692L36.0124 17.3198ZM30.6685 2.96845C30.6685 2.96845 31.0053 4.16072 31.2523 4.82309L33.6324 11.0935H27.6373L30.0398 4.82309C30.2868 4.16072 30.6236 2.96845 30.6236 2.96845H30.6685Z" fill="white"/>
<path d="M39.8844 17.3198H40.8499L41.8153 5.52962C41.8827 4.77894 41.8827 3.43211 41.8827 3.43211H41.9276C41.9276 3.43211 42.4216 4.80101 42.7584 5.52962L46.9571 14.3392H47.9451L52.1663 5.52962C52.5256 4.77894 52.9746 3.47627 52.9746 3.47627H53.0195C53.0195 3.47627 53.0195 4.77894 53.0869 5.52962L54.0524 17.3198H55.0179L53.7605 1.8645H52.8174L48.237 11.5793C47.8777 12.33 47.4736 13.3235 47.4736 13.3235H47.4287C47.4287 13.3235 47.0245 12.33 46.6653 11.5793L42.0848 1.8645H41.1417L39.8844 17.3198Z" fill="white"/>
<path fill-rule="evenodd" clip-rule="evenodd" d="M69.1901 3.97269e-05H67.5738L60.9844 20H62.6447L64.261 20L70.8245 0L69.1901 3.97269e-05Z" fill="#008ACE"/>
</svg>
