<?xml version="1.0" encoding="UTF-8"?>
<svg width="32px" height="32px" viewBox="0 0 32 32" version="1.1" xmlns="http://www.w3.org/2000/svg" xmlns:xlink="http://www.w3.org/1999/xlink">
    <!-- Generator: Sketch 58 (84663) - https://sketch.com -->
    <title>icon_ava_default</title>
    <desc>Created with Sketch.</desc>
    <g id="icon_ava_default" stroke="none" stroke-width="1" fill="none" fill-rule="evenodd">
        <circle id="Oval" fill="#FFFFFF" fill-rule="nonzero" cx="16" cy="16" r="16"></circle>
        <g id="Group" transform="translate(5.000000, 2.000000)">
            <path d="M10.658945,0 C12.6718842,0 14.3031374,1.68588824 14.3031374,3.76508783 L14.3031374,3.83548962 C14.3031374,4.27004179 14.1898147,4.67660301 13.992832,5.02614669 C17.8910641,5.2024405 21,8.52358041 21,12.5953499 L21,18.5466481 C21,22.1268139 18.1891553,25.0292451 14.7230829,25.0292451 L13.5548511,25.0293389 L13.7278821,25.5642987 C14.2822356,25.5642987 14.8093258,25.8365189 15.145573,26.3152511 L16.1815778,27.8077691 C15.7992102,27.9767334 15.4076413,28.1298573 15.0095547,28.2631807 L14.6090315,28.3898511 C14.5726805,28.399238 14.5363294,28.4086249 14.4999784,28.4180119 C13.2276917,28.802875 11.8917907,29 10.5013632,29 C9.12002337,29 7.77503462,28.802875 6.51183573,28.4273988 C6.4936602,28.4180119 6.46639692,28.4180119 6.4482214,28.4086249 C6.03272893,28.2819017 5.62718755,28.1393381 5.22803602,27.976974 L4.83087243,27.807863 L5.86687727,26.315345 C6.20312446,25.8366128 6.73021464,25.5643926 7.28456811,25.5643926 L7.43878743,25.0293389 L6.27691708,25.0292451 C2.81084473,25.0292451 0,22.1268139 0,18.5466481 L0,12.5953499 C0,8.60840894 2.98074625,5.34114712 6.76586683,5.03995396 L7.007,5.024 L6.95106395,4.9214424 C6.78815191,4.59640369 6.6966808,4.22732588 6.6966808,3.83548962 L6.6966808,3.76508783 C6.6966808,1.68588824 8.32793405,0 10.3408733,0 L10.658945,0 Z M14.32722,8.92976329 L6.67259823,8.92976329 C4.15983209,8.92976329 2.12326467,11.0333688 2.12326467,13.6279095 L2.12326467,13.6279095 L2.12326467,17.6886849 C2.12326467,20.3921137 4.24525705,22.5839562 6.86253246,22.5839562 L6.86253246,22.5839562 L14.1372858,22.5839562 C16.7545612,22.5839562 18.8765536,20.3921137 18.8765536,17.6886849 L18.8765536,17.6886849 L18.8765536,13.6279095 C18.8765536,11.0333688 16.8399862,8.92976329 14.32722,8.92976329 L14.32722,8.92976329 Z M7.00854171,5.02477866 L7.007,5.024 L7.016,5.039 L7.00854171,5.02477866 L7.00854171,5.02477866 Z" id="Combined-Shape" fill="#A1B0BB"></path>
            <path d="M14.6415,21 L14.3595,21 C14.1755,21 14.0255,20.8621774 14.0255,20.6919804 L14.0255,11.3089446 C14.0255,11.1387476 14.1755,11 14.3595,11 L14.6415,11 C14.8255,11 14.9745,11.1387476 14.9745,11.3089446 L14.9745,20.6919804 C14.9745,20.8621774 14.8255,21 14.6415,21" id="Fill-15" fill="#222222"></path>
            <path d="M6.6415,21 L6.3595,21 C6.1745,21 6.0255,20.8621774 6.0255,20.6919804 L6.0255,11.3089446 C6.0255,11.1387476 6.1745,11 6.3595,11 L6.6415,11 C6.8255,11 6.9745,11.1387476 6.9745,11.3089446 L6.9745,20.6919804 C6.9745,20.8621774 6.8255,21 6.6415,21" id="Fill-17" fill="#222222"></path>
            <path d="M17.9088472,9.87509261 L13.1403038,10.9972373 C13.0679178,11.0136825 13,10.9546732 13,10.8743818 L13,10.4439039 C13,10.3955356 13.0268097,10.3500694 13.0679178,10.3297547 L17.8364611,8.01097816 C17.9133155,7.97421825 18,8.03419494 18,8.12512736 L18,9.75320448 C18,9.81124644 17.9624665,9.86251685 17.9088472,9.87509261" id="Fill-19" fill="#222222"></path>
            <path d="M4.09115282,9.87489176 L8.85969616,10.9969734 C8.93208222,11.014385 9,10.9544117 9,10.8750921 L9,10.4446384 C9,10.3953055 8.97319035,10.3508092 8.93208222,10.3304956 L4.16353887,8.01088194 C4.08668454,7.97412409 4,8.03506474 4,8.12502473 L4,9.75301047 C4,9.81201649 4.03842717,9.86231671 4.09115282,9.87489176" id="Fill-21" fill="#222222"></path>
        </g>
    </g>
</svg>
