<?xml version="1.0" encoding="UTF-8"?>
<svg width="32px" height="32px" viewBox="0 0 32 32" version="1.1" xmlns="http://www.w3.org/2000/svg" xmlns:xlink="http://www.w3.org/1999/xlink">
    <!-- Generator: Sketch 52.6 (67491) - http://www.bohemiancoding.com/sketch -->
    <title>icon_ava_default</title>
    <desc>Created with Sketch.</desc>
    <g id="icon_ava_default" stroke="none" stroke-width="1" fill="none" fill-rule="evenodd">
        <circle id="Oval" fill="#FFFFFF" fill-rule="nonzero" cx="16" cy="16" r="16"></circle>
        <path d="M17.0093726,26.9846878 C16.910831,27.4218828 17.2754731,28.0806343 18.1032989,28.9609423 C19.3610428,30.2984241 18.1462117,31.4048755 18.2921152,31 C18.4380187,30.5951245 18.0228624,29.7962447 17.6839512,29.7014374 C17.832649,30.104618 17.0216971,31.4132567 17.0134139,31.0789379 C17.0051307,30.744619 17.2900517,29.2687168 16.0378965,28.9609423 C15.2060132,28.7564689 14.869241,28.095999 15.02758,26.9795327 C12.6161109,26.7961226 9.81634295,25.8365397 9.8082352,22.0208067 C9.79893422,17.6435055 2.91625,13.8427592 5.63601528,8.52309705 C6.28713291,7.24955853 7.90163477,6.32046328 9.95316165,5.73715949 L10.2624982,4.92833987 C10.7066588,3.76699688 11.821178,3 13.0645589,3 L18.9354411,3 C20.178822,3 21.2933412,3.76699688 21.7375018,4.92833987 L22.1187369,5.92515195 C23.7755606,6.4858746 25.0643536,7.30179257 25.6548576,8.37375178 C28.4250737,13.4026062 21.4342922,17.5836489 21.4973697,22.0095063 C21.5527369,25.8943608 19.2989155,26.8171395 17.0093726,26.9846878 Z M22.1534231,13.4287279 C22.6982931,12.7064553 22.9453818,12.3514318 23.5343077,11.4175249 C24.1232336,10.4836179 21.5050018,10.8493031 20.5484166,11.4015879 C19.5918313,11.9538726 19.6748082,12.5521504 19.7802979,13.4013949 C19.8338254,13.8323183 20.0948276,14.3569627 20.5507307,14.4080006 C20.9962492,14.457876 21.6085531,14.1510005 22.1534231,13.4287279 Z M10.2293961,13.4287279 C10.7742662,14.1510005 11.3865701,14.457876 11.8320886,14.4080006 C12.2879916,14.3569627 12.5489938,13.8323183 12.6025214,13.4013949 C12.7080111,12.5521504 12.7909879,11.9538726 11.8344027,11.4015879 C10.8778174,10.8493031 8.25958561,10.4836179 8.84851155,11.4175249 C9.43743748,12.3514318 9.68452614,12.7064553 10.2293961,13.4287279 Z" id="Combined-Shape" fill-opacity="0.6" fill="#A1B0BB" fill-rule="nonzero"></path>
    </g>
</svg>