<svg id="Layer_1" data-name="Layer 1" xmlns="http://www.w3.org/2000/svg" viewBox="0 0 193.46 182.76"><defs><style>.cls-1{fill:#fff;}</style></defs><title>puzzle</title><path class="cls-1" d="M552.09,421.72c-14.18,0-17.9-12.9-30.69-12.9-9.3,0-12.79,5.81-12.79,14.42,0,9.07,3.72,17.79,3.61,26.74v0.58c-1.28,0-2.56,0-3.84.12-12,1.16-24.07,3.49-36.16,3.49-8.26,0-16.86-3.26-16.86-12.79,0-12.79,12.9-16.51,12.9-30.69,0-12.67-10-19.53-22-19.53-12.2,0-23.48,6.74-23.48,20.11,0,14.76,11.28,21.16,11.28,29.18,0,4.07-2.56,7.67-5.35,10.35-3.6,3.37-8.72,4.07-13.6,4.07-9.54,0-19.07-1.28-28.48-2.79-2.09-.35-4.3-0.58-6.39-0.93l-1.51-.23a1.37,1.37,0,0,1-.58-0.23v-119c0.46,0.35,7.32,1.16,8.49,1.39,9.42,1.51,18.95,2.79,28.48,2.79,4.88,0,10-.7,13.6-4.07,2.79-2.68,5.35-6.28,5.35-10.35,0-8-11.28-14.42-11.28-29.18,0-13.37,11.28-20.11,23.6-20.11,11.86,0,21.86,6.86,21.86,19.53,0,14.18-12.9,17.9-12.9,30.69,0,9.54,8.6,12.79,16.86,12.79,13.37,0,26.62-3,39.88-3.72v0.23c-0.35.46-1.16,7.32-1.39,8.49-1.51,9.42-2.79,18.95-2.79,28.48,0,4.88.7,10,4.07,13.6,2.68,2.79,6.28,5.35,10.35,5.35,8,0,14.42-11.28,29.18-11.28,13.37,0,20.11,11.28,20.11,23.48C571.62,411.72,564.76,421.72,552.09,421.72Z" transform="translate(-378.17 -272.09)"/></svg>